<?xml version="1.0" encoding="UTF-8"?>
<svg width="68px" height="68px" viewBox="0 0 68 68" version="1.1" xmlns="http://www.w3.org/2000/svg" xmlns:xlink="http://www.w3.org/1999/xlink">
    <!-- Generator: Sketch 42 (36781) - http://www.bohemiancoding.com/sketch -->
    <title>Slice 3</title>
    <desc>Created with Sketch.</desc>
    <defs></defs>
    <g id="Page-2" stroke="none" stroke-width="1" fill="none" fill-rule="evenodd">
        <g id="Group" transform="translate(3.929395, 15.000000)" stroke="#AF9F69" stroke-width="2" fill-rule="nonzero">
            <path d="M51.8689104,9.88382149 L47.7501697,9.88382149 L47.96776,2.99415906 C47.9923928,2.21334336 47.8038567,1.45110716 47.4463644,0.885623182 C47.0888721,0.320139203 46.5930568,3.55271368e-15 46.0751351,3.55271368e-15 L4.3909654,3.55271368e-15 C3.8727279,3.55271368e-15 3.37722842,0.320139203 3.01973613,0.885623182 C2.66224384,1.45158356 2.47370771,2.21334336 2.49834057,2.99415906 L3.33964752,29.6171638 C3.54744781,36.196215 6.21885002,41.7319554 9.97220328,44.2468585 L1.89483547,44.2468585 C0.848570485,44.2468585 0,45.5269389 0,47.1052442 C0,48.6835495 0.848570485,49.9636299 1.89483547,49.9636299 L48.8384369,49.9636299 C49.8847019,49.9636299 50.7332723,48.6835495 50.7332723,47.1052442 C50.7332723,45.5269389 49.8847019,44.2468585 48.8384369,44.2468585 L40.4942131,44.2468585 C43.5366872,42.2078766 45.8660716,38.1837459 46.7503282,33.227305 L51.8689104,33.227305 C56.1351325,33.227305 59.6061552,27.9912188 59.6061552,21.5555633 C59.6061552,15.1199078 56.1351325,9.88382149 51.8689104,9.88382149 Z M35.9453447,39.9830997 L14.5210716,39.9830997 C10.5621287,39.9830997 7.31343331,35.3101154 7.12489718,29.3446644 L6.378332,5.71581869 L44.0877685,5.71581869 L43.3415192,29.3446644 C43.152983,35.3101154 39.9042876,39.9830997 35.9453447,39.9830997 Z M51.8689104,27.5105336 L47.1934039,27.5105336 L47.5698445,15.5943998 C47.5979512,15.5963054 47.6257422,15.600593 47.6541647,15.600593 L51.8689104,15.600593 C54.0457605,15.600593 55.8164843,18.2717544 55.8164843,21.5555633 C55.8164843,24.8393721 54.0457605,27.5105336 51.8689104,27.5105336 Z" id="Shape"></path>
        </g>
    </g>
</svg>