<?xml version="1.0" encoding="UTF-8"?>
<svg width="68px" height="65px" viewBox="0 0 68 65" version="1.1" xmlns="http://www.w3.org/2000/svg" xmlns:xlink="http://www.w3.org/1999/xlink">
    <!-- Generator: Sketch 42 (36781) - http://www.bohemiancoding.com/sketch -->
    <title>Slice 2</title>
    <desc>Created with Sketch.</desc>
    <defs></defs>
    <g id="Page-2" stroke="none" stroke-width="1" fill="none" fill-rule="evenodd">
        <g id="Capa_1" transform="translate(6.000000, 5.000000)" stroke="#AF9F69" stroke-width="1.75" fill="#AF9F69" fill-rule="nonzero">
            <path d="M49.600814,0 C44.7586047,0 40.7234302,3.50912791 39.8970349,8.11744186 L1.90395349,8.11744186 C1.21848837,8.11744186 0.596860465,8.51895349 0.314476744,9.14337209 C0.0324418605,9.76796512 0.142151163,10.4998256 0.594767442,11.0143605 L22.4145349,35.7985465 C22.7455814,36.1749419 23.2226163,36.3903488 23.7237209,36.3903488 L24.0122093,36.3903488 C24.0284302,43.0236628 24.0284302,49.7654651 24.0125581,56.4825 L17.2119767,56.4825 C16.2486628,56.4825 15.4677907,57.2635465 15.4677907,58.226686 C15.4677907,59.19 16.2486628,59.9708721 17.2119767,59.9708721 L25.7476744,59.9708721 L25.7525581,59.9708721 L34.2929651,59.9708721 C35.2561047,59.9708721 36.0371512,59.19 36.0371512,58.226686 C36.0371512,57.2635465 35.2561047,56.4825 34.2929651,56.4825 L27.5011047,56.4825 C27.5169767,49.7649419 27.5169767,43.0236628 27.5007558,36.3903488 L27.7810465,36.3903488 C28.2821512,36.3903488 28.7590116,36.1751163 29.0902326,35.7988953 L44.4966279,18.2993023 C46.0257558,19.2249419 47.7873837,19.7227326 49.5994186,19.7227326 L49.6009884,19.7227326 C55.0384884,19.7227326 59.4622674,15.2993023 59.4622674,9.86180233 C59.462093,4.42395349 55.038314,0 49.600814,0 Z M45.7414535,11.605814 L42.9308721,14.7981977 C42.9301744,14.7992442 42.9291279,14.8001163 42.9280814,14.8011628 C42.9272093,14.8022093 42.9265116,14.8032558 42.9256395,14.8043023 L41.6665116,16.2343605 L9.8380814,16.2343605 L5.76331395,11.605814 L45.7414535,11.605814 Z M26.9926744,32.9018023 L24.5119186,32.9018023 L12.9092442,19.7225581 L38.5955233,19.7225581 L26.9926744,32.9018023 Z M49.6006395,16.234186 L49.5994186,16.234186 C48.6430814,16.234186 47.7083721,16.0191279 46.8596512,15.6146512 L50.91,11.014186 C51.3629651,10.4998256 51.4725,9.7677907 51.1901163,9.14319767 C50.9080814,8.51877907 50.2859302,8.11726744 49.600814,8.11726744 L43.4724419,8.11726744 C44.2330814,5.44866279 46.6913372,3.48837209 49.600814,3.48837209 C53.115,3.48837209 55.9737209,6.34744186 55.9737209,9.86162791 C55.9737209,13.3756395 53.1148256,16.234186 49.6006395,16.234186 Z" id="Shape"></path>
        </g>
    </g>
</svg>