<?xml version="1.0" encoding="UTF-8"?>
<svg width="62px" height="65px" viewBox="0 0 62 65" version="1.1" xmlns="http://www.w3.org/2000/svg" xmlns:xlink="http://www.w3.org/1999/xlink">
    <!-- Generator: Sketch 42 (36781) - http://www.bohemiancoding.com/sketch -->
    <title>Slice 4</title>
    <desc>Created with Sketch.</desc>
    <defs></defs>
    <g id="Page-2" stroke="none" stroke-width="1" fill="none" fill-rule="evenodd">
        <path d="M16.2727637,25.782041 L12.1297168,7.11018555 C11.736875,5.33955078 10.1666895,4.07959961 8.35308594,4.07959961 C7.60585938,4.07959961 7,4.68535156 7,5.43268555 L7,27.3610352 L7,30.6244043 L7,55.4966504 C7,57.4314258 8.5684668,58.9998926 10.5032422,58.9998926 C12.5284668,58.9998926 14.1309863,57.2859766 13.9990723,55.2679492 L12.3870996,30.6244043 C13.5941992,30.6244043 14.7359863,30.0766602 15.491377,29.1352148 C16.2467676,28.193877 16.5342285,26.960459 16.2727637,25.782041 Z" id="Shape" fill="#AF9F69" fill-rule="nonzero"></path>
        <path d="M34.3010547,4.03974609 C33.3120215,4.03974609 32.5101172,4.84154297 32.5101172,5.83057617 L32.5101172,15.1034473 L30.9182324,15.1034473 L30.9182324,5.83068359 C30.9182324,4.84165039 30.1164355,4.03985352 29.1272949,4.03985352 C28.1381543,4.03985352 27.3363574,4.84165039 27.3363574,5.83068359 L27.3363574,15.1035547 L25.7842188,15.1035547 L25.7842188,5.83068359 C25.7842188,4.84165039 24.9824219,4.03985352 23.9933887,4.03985352 C23.0043555,4.03985352 22.2024512,4.84165039 22.2024512,5.83068359 L22.2024512,15.1035547 L22.1625977,17.9752637 C22.1625977,19.5773535 22.7952051,21.1145605 23.9229199,22.2525879 C25.2810547,23.6230762 26.0145313,25.4926465 25.9509375,27.421084 L25.0478418,54.7837988 C24.9718945,57.0874609 26.8205176,59 29.1274023,59 C31.4320313,59 33.2828027,57.0897168 33.206748,54.7837988 L32.3036523,27.421084 C32.2400586,25.4926465 32.9735352,23.6231836 34.3316699,22.2525879 C35.4124414,21.1619336 36.0919922,19.6393359 36.0919922,17.9752637 L36.0919922,15.1035547 L36.0919922,5.83068359 C36.0918848,4.84154297 35.2900879,4.03974609 34.3010547,4.03974609 Z" id="Shape" fill="#AF9F69" fill-rule="nonzero"></path>
        <path d="M56.3884961,14.3074512 C56.3884961,8.61473633 53.0209277,4 48.8668164,4 C44.7127051,4 41.3451367,8.61484375 41.3451367,14.3074512 C41.3451367,16.9705469 42.9910547,20.0505469 44.742998,22.5749609 C45.7808008,24.0702734 46.2891211,25.8555176 46.1991016,27.6733105 L44.8567578,54.7865918 C44.7434277,57.0788672 46.5733594,59 48.866709,59 C51.1616699,59 52.9899902,57.0774707 52.8766602,54.7866992 L51.5344238,27.6736328 C51.4446191,25.8605664 51.9555176,24.0665137 52.9905273,22.5752832 C54.7425781,20.0507617 56.3884961,16.9705469 56.3884961,14.3074512 Z" id="Shape" fill="#AF9F69" fill-rule="nonzero"></path>
    </g>
</svg>