<?xml version="1.0" encoding="UTF-8"?>
<svg width="53px" height="57px" viewBox="0 0 53 57" version="1.1" xmlns="http://www.w3.org/2000/svg" xmlns:xlink="http://www.w3.org/1999/xlink">
    <!-- Generator: Sketch 42 (36781) - http://www.bohemiancoding.com/sketch -->
    <title>Slice 5</title>
    <desc>Created with Sketch.</desc>
    <defs></defs>
    <g id="Page-2" stroke="none" stroke-width="1" fill="none" fill-rule="evenodd">
        <path d="M10.2727637,22.7024414 L6.1297168,4.03058594 C5.736875,2.25995117 4.16668945,1 2.35308594,1 C1.60585938,1 1,1.60575195 1,2.35308594 L1,24.2814355 L1,27.5448047 L1,52.4170508 C1,54.3518262 2.5684668,55.920293 4.50324219,55.920293 C6.5284668,55.920293 8.13098633,54.206377 7.99907227,52.1883496 L6.38709961,27.5448047 C7.59419922,27.5448047 8.73598633,26.9970605 9.49137695,26.0556152 C10.2467676,25.1142773 10.5342285,23.8808594 10.2727637,22.7024414 Z" id="Shape" stroke="#AF9F69" stroke-width="2" fill="#FFFFFF" fill-rule="nonzero"></path>
        <path d="M28.138457,1 C27.1494238,1 26.3475195,1.80179687 26.3475195,2.79083008 L26.3475195,12.0637012 L24.7556348,12.0637012 L24.7556348,2.7909375 C24.7556348,1.8019043 23.9538379,1.00010742 22.9646973,1.00010742 C21.9755566,1.00010742 21.1737598,1.8019043 21.1737598,2.7909375 L21.1737598,12.0638086 L19.6216211,12.0638086 L19.6216211,2.7909375 C19.6216211,1.8019043 18.8198242,1.00010742 17.830791,1.00010742 C16.8417578,1.00010742 16.0398535,1.8019043 16.0398535,2.7909375 L16.0398535,12.0638086 L16,14.9355176 C16,16.5376074 16.6326074,18.0748145 17.7603223,19.2128418 C19.118457,20.5833301 19.8519336,22.4529004 19.7883398,24.3813379 L18.8852441,51.7440527 C18.8092969,54.0477148 20.6579199,55.9602539 22.9648047,55.9602539 C25.2694336,55.9602539 27.1202051,54.0499707 27.0441504,51.7440527 L26.1410547,24.3813379 C26.0774609,22.4529004 26.8109375,20.5834375 28.1690723,19.2128418 C29.2498438,18.1221875 29.9293945,16.5995898 29.9293945,14.9355176 L29.9293945,12.0638086 L29.9293945,2.7909375 C29.9292871,1.80179687 29.1274902,1 28.138457,1 Z" id="Shape" stroke="#AF9F69" stroke-width="2" fill="#FFFFFF" fill-rule="nonzero"></path>
        <path d="M51.0433594,11.3074512 C51.0433594,5.61473633 47.675791,1 43.5216797,1 C39.3675684,1 36,5.61484375 36,11.3074512 C36,13.9705469 37.645918,17.0505469 39.3978613,19.5749609 C40.4356641,21.0702734 40.9439844,22.8555176 40.8539648,24.6733105 L39.5116211,51.7865918 C39.398291,54.0788672 41.2282227,56 43.5215723,56 C45.8165332,56 47.6448535,54.0774707 47.5315234,51.7866992 L46.1892871,24.6736328 C46.0994824,22.8605664 46.6103809,21.0665137 47.6453906,19.5752832 C49.3974414,17.0507617 51.0433594,13.9705469 51.0433594,11.3074512 Z" id="Shape" stroke="#AF9F69" stroke-width="2" fill="#FFFFFF" fill-rule="nonzero"></path>
    </g>
</svg>