<?xml version="1.0" encoding="UTF-8"?>
<svg width="69px" height="68px" viewBox="0 0 69 68" version="1.1" xmlns="http://www.w3.org/2000/svg" xmlns:xlink="http://www.w3.org/1999/xlink">
    <!-- Generator: Sketch 42 (36781) - http://www.bohemiancoding.com/sketch -->
    <title>Slice 5</title>
    <desc>Created with Sketch.</desc>
    <defs></defs>
    <g id="Page-2" stroke="none" stroke-width="1" fill="none" fill-rule="evenodd">
        <path d="M22.2727637,31.7024414 L18.1297168,13.0305859 C17.736875,11.2599512 16.1666895,10 14.3530859,10 C13.6058594,10 13,10.605752 13,11.3530859 L13,33.2814355 L13,36.5448047 L13,61.4170508 C13,63.3518262 14.5684668,64.920293 16.5032422,64.920293 C18.5284668,64.920293 20.1309863,63.206377 19.9990723,61.1883496 L18.3870996,36.5448047 C19.5941992,36.5448047 20.7359863,35.9970605 21.491377,35.0556152 C22.2467676,34.1142773 22.5342285,32.8808594 22.2727637,31.7024414 Z" id="Shape" stroke="#AF9F69" stroke-width="2" fill="#FFFFFF" fill-rule="nonzero"></path>
        <path d="M40.138457,10 C39.1494238,10 38.3475195,10.8017969 38.3475195,11.7908301 L38.3475195,21.0637012 L36.7556348,21.0637012 L36.7556348,11.7909375 C36.7556348,10.8019043 35.9538379,10.0001074 34.9646973,10.0001074 C33.9755566,10.0001074 33.1737598,10.8019043 33.1737598,11.7909375 L33.1737598,21.0638086 L31.6216211,21.0638086 L31.6216211,11.7909375 C31.6216211,10.8019043 30.8198242,10.0001074 29.830791,10.0001074 C28.8417578,10.0001074 28.0398535,10.8019043 28.0398535,11.7909375 L28.0398535,21.0638086 L28,23.9355176 C28,25.5376074 28.6326074,27.0748145 29.7603223,28.2128418 C31.118457,29.5833301 31.8519336,31.4529004 31.7883398,33.3813379 L30.8852441,60.7440527 C30.8092969,63.0477148 32.6579199,64.9602539 34.9648047,64.9602539 C37.2694336,64.9602539 39.1202051,63.0499707 39.0441504,60.7440527 L38.1410547,33.3813379 C38.0774609,31.4529004 38.8109375,29.5834375 40.1690723,28.2128418 C41.2498438,27.1221875 41.9293945,25.5995898 41.9293945,23.9355176 L41.9293945,21.0638086 L41.9293945,11.7909375 C41.9292871,10.8017969 41.1274902,10 40.138457,10 Z" id="Shape" stroke="#AF9F69" stroke-width="2" fill="#FFFFFF" fill-rule="nonzero"></path>
        <path d="M63.0433594,20.3074512 C63.0433594,14.6147363 59.675791,10 55.5216797,10 C51.3675684,10 48,14.6148437 48,20.3074512 C48,22.9705469 49.645918,26.0505469 51.3978613,28.5749609 C52.4356641,30.0702734 52.9439844,31.8555176 52.8539648,33.6733105 L51.5116211,60.7865918 C51.398291,63.0788672 53.2282227,65 55.5215723,65 C57.8165332,65 59.6448535,63.0774707 59.5315234,60.7866992 L58.1892871,33.6736328 C58.0994824,31.8605664 58.6103809,30.0665137 59.6453906,28.5752832 C61.3974414,26.0507617 63.0433594,22.9705469 63.0433594,20.3074512 Z" id="Shape" stroke="#AF9F69" stroke-width="2" fill="#FFFFFF" fill-rule="nonzero"></path>
    </g>
</svg>