<?xml version="1.0" encoding="UTF-8"?>
<svg width="91px" height="89px" viewBox="0 0 91 89" version="1.1" xmlns="http://www.w3.org/2000/svg" xmlns:xlink="http://www.w3.org/1999/xlink">
    <!-- Generator: Sketch 42 (36781) - http://www.bohemiancoding.com/sketch -->
    <title>right-arrow-circular-button (1)</title>
    <desc>Created with Sketch.</desc>
    <defs></defs>
    <g id="Page-2" stroke="none" stroke-width="1" fill="none" fill-rule="evenodd">
        <g id="right-arrow-circular-button-(1)" fill-rule="nonzero" fill="#AF9F69">
            <g id="Capa_1" transform="translate(3.000000, 3.000000)">
                <g id="Right">
                    <path d="M37.6456536,24.3682304 L37.6379232,24.3786732 C36.942866,23.7405768 36.029866,23.34375 35.0156928,23.34375 C32.8681356,23.34375 31.125,25.08675 31.125,27.2344428 C31.125,28.3705392 31.6178464,29.382 32.3933268,30.0927892 L32.3855964,30.103232 L44.82,41.5 L32.3854608,52.899616 L32.3931912,52.9099232 C31.6177108,53.618 31.1248644,54.6295964 31.1248644,55.7656928 C31.1248644,57.9133856 32.8678644,59.6563856 35.0155572,59.6563856 C36.0297304,59.6563856 36.9427304,59.2595588 37.6377876,58.6241748 L37.645518,58.634482 L53.208018,44.3687892 C54.0095376,43.6295196 54.4686144,42.5920196 54.4686144,41.5001356 C54.4686144,40.4082516 54.0095376,39.370616 53.208018,38.631482 L37.6456536,24.3682304 Z M41.5,0 C18.5816928,0 0,18.5816928 0,41.5 C0,64.4183072 18.5816928,83 41.5,83 C64.4183072,83 83,64.4183072 83,41.5 C83,18.5816928 64.4183072,0 41.5,0 Z M41.5,75.21875 C22.908,75.21875 7.78125,60.092 7.78125,41.5 C7.78125,22.908 22.908,7.78125 41.5,7.78125 C60.092,7.78125 75.21875,22.908 75.21875,41.5 C75.21875,60.092 60.092,75.21875 41.5,75.21875 Z" id="Shape"></path>
                </g>
            </g>
        </g>
    </g>
</svg>