<?xml version="1.0" encoding="UTF-8"?>
<svg width="32px" height="43px" viewBox="0 0 32 43" version="1.1" xmlns="http://www.w3.org/2000/svg" xmlns:xlink="http://www.w3.org/1999/xlink">
    <!-- Generator: Sketch 42 (36781) - http://www.bohemiancoding.com/sketch -->
    <title>Slice 4</title>
    <desc>Created with Sketch.</desc>
    <defs></defs>
    <g id="Page-2" stroke="none" stroke-width="1" fill="none" fill-rule="evenodd">
        <g id="unicorn-(2)" transform="translate(2.000000, 1.000000)" fill-rule="nonzero" fill="#AF9F69">
            <g id="Layer_1">
                <path d="M28.9078868,0 L18.2210053,8.05875 L15.4753158,5.24796875 L15.4743237,3.0159375 C15.4743237,1.35273438 14.1529158,0 12.5288395,0 L11.3522026,0 L11.3522026,6.80070313 L10.61255,7.09484375 C7.52137895,8.324375 4.88085263,10.4525781 2.97677368,13.2492969 C1.02942368,16.1095312 1.77635684e-15,19.4714063 1.77635684e-15,22.9716406 L1.77635684e-15,40 L22.7950684,40 L22.7950684,36.3310156 C22.7950684,32.853125 20.0310632,30.0229687 16.6337132,30.0221875 L15.4743237,30.0219531 L15.4743237,21.7161719 C15.3309263,21.7254688 15.1870711,21.7300781 15.0429868,21.7300781 C11.2452079,21.7300781 8.15548684,18.5671094 8.15548684,14.679375 C8.15548684,10.7916406 11.2452842,7.62867187 15.0429868,7.62867187 L15.0429868,10.0029687 C12.5241079,10.0029687 10.4747237,12.1007812 10.4747237,14.6794531 C10.4747237,17.258125 12.5240316,19.3559375 15.0429868,19.3559375 C15.4639447,19.3559375 15.8823079,19.2960156 16.2844158,19.1802344 L16.3128053,19.171875 C16.6177632,19.0817969 16.9211184,18.9539844 17.2143237,18.7917188 L17.9745816,18.3711719 L22.4280658,22.9302344 C22.6325921,23.1396094 22.9656342,23.1396094 23.1702368,22.9302344 L27.9590526,18.0278125 L21.0356842,10.9402344 L28.9078868,0 Z" id="Shape"></path>
            </g>
        </g>
    </g>
</svg>